<?xml version="1.0" encoding="UTF-8" standalone="no"?>
<svg width="223px" height="62px" viewBox="0 0 223 62" version="1.1" xmlns="http://www.w3.org/2000/svg" xmlns:xlink="http://www.w3.org/1999/xlink">
    <!-- Generator: sketchtool 3.8.2 (29753) - http://www.bohemiancoding.com/sketch -->
    <title>EE648DC2-01BE-4BF2-9895-75B67844A007</title>
    <desc>Created with sketchtool.</desc>
    <defs></defs>
    <g id="Page-1" stroke="none" stroke-width="1" fill="none" fill-rule="evenodd">
        <g id="search-index-d" transform="translate(-259.000000, -372.000000)">
            <g id="Left" transform="translate(0.000000, 107.000000)">
                <g id="Search-Desktop-+-Logo-+-Slogan" transform="translate(106.000000, 265.000000)">
                    <g id="logo-d" transform="translate(106.000000, 0.000000)">
                        <g id="Logo-Copy">
                            <g transform="translate(47.000000, 0.000000)">
                                <g id="LUN">
                                    <polyline id="Fill-3" fill="#FFFFFF" points="150.178616 0.893501859 132.399497 0.893501859 132.399497 22.0434471 121.720755 22.0434471 121.720755 0.781464008 103.933182 0.781464008 103.933182 60.8645624 121.720755 60.8645624 121.720755 39.720219 132.399497 39.720219 132.399497 60.8085434 150.178616 60.8085434 150.178616 0.893501859"></polyline>
                                    <path d="M105.212377,0.893501859 L84.9903899,0.893501859 L84.173283,3.27710713 L79.6453836,16.4331517 L78.0055346,20.7634147 L76.095195,15.9681947 L70.6290314,0.893501859 L49.8407044,0.893501859 L51.9933585,5.81476445 L68.3495849,43.1541791 C68.262239,43.1681838 68.1129057,43.1849895 67.8846792,43.1849895 L61.2971069,43.1849895 L61.2971069,60.8365529 L69.2624906,60.8365529 C71.7673459,60.8365529 73.9876226,60.4808327 75.8585157,59.7693924 C77.8533836,59.0215397 79.6482013,57.6854883 81.2007044,56.0189253 C81.4514717,55.7472335 81.7388679,55.464338 82.0459874,55.1618358 C83.3139119,53.895808 84.8945912,52.3216762 85.900478,50.2545779 C86.9176352,48.162271 87.9939623,45.6218128 89.101283,42.6976249 L103.372478,5.67191619 L105.212377,0.893501859" id="Fill-4" fill="#FFFFFF"></path>
                                    <path d="M50.6606289,0.918710375 L8.00201258,0.918710375 L8.00201258,28.0290693 C8.00201258,30.647954 8.00483019,32.9111186 7.85267925,34.8605772 C7.8132327,35.3703494 7.7850566,35.8549131 7.7568805,36.3198702 C7.66671698,37.7987699 7.60191195,38.8715323 7.27788679,39.7426266 C7.13418868,40.1319581 6.9989434,40.5296925 6.86651572,40.9274268 C6.63265409,41.6248625 6.24100629,42.792857 5.9648805,43.0337384 C5.13368553,43.731174 5.13368553,43.731174 3.75587421,44.0028658 L0.89318239,44.568657 L0.91290566,60.884169 L4.58988679,60.8617614 C9.76301887,60.6796999 12.6003522,59.321241 15.4940377,57.3633795 C18.5286038,55.3186887 20.8841258,52.5849652 22.4957987,49.2378344 C24.1863648,45.7198459 24.8006038,41.8097249 25.1809811,38.4513903 C25.6064403,34.6953214 25.8205786,30.6759635 25.8205786,26.4969517 L25.8205786,18.5842785 L32.8815094,18.5842785 L32.8815094,60.8085434 L50.6606289,60.8085434 L50.6606289,0.918710375" id="Fill-5" fill="#FFFFFF"></path>
                                    <path d="M11.5719245,4.47311119 L11.5719245,27.3232308 C11.5719245,30.3146414 11.5916478,32.9643366 11.4141384,35.2723163 C11.2338113,37.583097 11.2676226,39.3757026 10.6280252,41.1010855 C9.98842767,42.8236675 9.51788679,44.7815289 8.21051572,45.8738979 C6.90596226,46.963466 6.71436478,47.1427266 4.40955975,47.5992808 L4.4236478,57.3717824 C8.66978616,57.2205313 10.932327,56.296219 13.4540881,54.5960446 C15.9758491,52.8958702 17.9059119,50.6523123 19.2470943,47.8625698 C20.5854591,45.0756283 21.1940629,41.8517391 21.6082516,38.2021061 C22.0196226,34.5496722 22.2281258,30.7487881 22.2281258,26.6930179 L22.2281258,14.9822616 L36.4514214,14.9822616 L36.4514214,57.2653464 L47.0653585,57.2653464 L47.0653585,4.47311119 L11.5719245,4.47311119" id="Fill-6" fill="#333333"></path>
                                    <path d="M64.844478,57.2905549 L69.2653082,57.2905549 C71.3616101,57.2905549 73.1536101,57.0132612 74.6384906,56.453072 C76.1205535,55.8984846 77.8421132,54.9853761 79.0198742,53.7165475 C80.1948176,52.4477188 81.7698616,50.7587482 82.7419371,48.7532707 C83.7140126,46.7505941 84.7396226,44.3305765 85.8131321,41.4876161 L100.09278,4.44510172 L87.5797736,4.44510172 L83.0518742,17.6011463 L78.3239245,30.0793619 L77.9407296,30.0793619 L72.8295849,17.2958432 L68.146717,4.44510172 L55.2476981,4.44510172 L72.4886541,43.8460128 L72.0293836,44.8347469 C71.6180126,45.7002393 71.6180126,45.6918364 71.0319497,46.1960068 C70.4430692,46.705779 69.0596226,46.7926083 67.8818616,46.7926083 L64.844478,46.7926083 L64.844478,57.2905549" id="Fill-7" fill="#333333"></path>
                                    <polyline id="Fill-8" fill="#333333" points="146.608704 57.2653464 146.608704 4.44510172 135.941233 4.44510172 135.941233 25.595047 118.15366 25.595047 118.15366 4.44510172 107.53127 4.44510172 107.53127 57.2653464 118.15366 57.2653464 118.15366 36.121003 135.941233 36.121003 135.941233 57.2653464 146.608704 57.2653464"></polyline>
                                </g>
                                <g id="Flag" transform="translate(156.377358, 0.000000)">
                                    <polyline id="Fill-1" fill="#FFFFFF" points="1.03366038 0.22752302 66.022239 0.22752302 66.022239 43.9372231 20.0839245 43.8139815 1.03366038 61.1278513 1.03366038 0.22752302"></polyline>
                                    <polyline id="Fill-2" fill="#FF9800" points="5.09423899 4.20285578 61.9616604 4.20285578 61.9616604 39.8418088 17.3757987 39.8418088 5.09423899 51.8562882 5.09423899 4.20285578"></polyline>
                                    <path d="M32.5619119,24.4998052 L32.5619119,12.0492399 L29.3514465,12.0492399 L29.3514465,24.4208041 C29.3514465,25.8491431 28.9714717,27.0373188 28.2147421,27.7925689 C27.4547925,28.5478189 26.4468931,28.9238639 25.1942642,28.9238639 C24.524478,28.9238639 23.3555723,28.8037823 22.8306918,28.5667791 C22.3058113,28.326616 21.8582138,28.0042917 21.4943396,27.5966463 C21.1304654,27.1921609 20.8535346,26.6138732 20.660327,26.0577058 C20.4671195,25.5015385 20.3737358,24.9074506 20.3737358,24.2722821 L20.3737358,12.0492399 L17.2566541,12.0492399 L17.2566541,24.3512832 C17.2566541,25.4446577 17.4402013,26.4590312 17.8040755,27.3912435 C18.1711698,28.326616 18.6960503,29.1355867 19.3851572,29.8213158 C20.0742642,30.5070449 20.9050566,31.041092 21.8775346,31.4297771 C22.8532327,31.8184623 23.935195,32.0112249 25.1330818,32.0112249 C26.266566,32.0112249 27.3227673,31.8311025 28.2952453,31.4771778 C29.2677233,31.116933 29.6283774,30.6113263 30.3271447,29.9540376 C31.0259119,29.2999089 31.5733333,28.5098984 31.9694088,27.5871661 C32.3654843,26.6612739 32.5619119,25.6342602 32.5619119,24.4998052" id="Fill-9" fill="#FFFFFF"></path>
                                    <path d="M53.2061384,31.9859445 L45.1944654,11.9891991 L42.2094088,11.9891991 L34.1977358,31.9859445 L38.0651069,31.9859445 L40.2483522,26.8382362 L47.155522,26.8382362 L49.306566,31.9859445 L53.2061384,31.9859445 L53.2061384,31.9859445 Z M46.1540629,23.7698355 L41.2176101,23.7698355 L42.3961761,20.0346659 L43.6391447,16.6091804 L43.7325283,16.6091804 L45.0076981,20.1231471 L46.1540629,23.7698355 L46.1540629,23.7698355 Z" id="Fill-10" fill="#FFFFFF"></path>
                                </g>
                            </g>
                        </g>
                    </g>
                </g>
            </g>
        </g>
    </g>
</svg>